# xmcd
#
# Track frame offsets:
#	150
#	16416
#	31606
#	41361
#	54494
#	69923
#	86863
#	102353
#	115484
#	132398
#	145788
#	158263
#	172887
#	188265
#	198046
#	206516
#	222837
#	239839
#
# Disc length: 3377 seconds
#
# Revision: 1
# Processed by: cddbd v1.4PL0 Copyright (c) Steve Scherf et al.
# Submitted via: EasyCDDAExtractor 6.0.0.1
#
DISCID=e90d2f12
DTITLE=artist - title
DYEAR=1900
DGENRE=
TTITLE0=Pista 01
TTITLE1=Pista 02
TTITLE2=Pista 03
TTITLE3=Pista 04
TTITLE4=Pista 05
TTITLE5=Pista 06
TTITLE6=Pista 07
TTITLE7=Pista 08
TTITLE8=Pista 09
TTITLE9=Pista 10
TTITLE10=Pista 11
TTITLE11=Pista 12
TTITLE12=Pista 13
TTITLE13=Pista 14
TTITLE14=Pista 15
TTITLE15=Pista 16
TTITLE16=Pista 17
TTITLE17=Pista 18
EXTD=
EXTT0=
EXTT1=
EXTT2=
EXTT3=
EXTT4=
EXTT5=
EXTT6=
EXTT7=
EXTT8=
EXTT9=
EXTT10=
EXTT11=
EXTT12=
EXTT13=
EXTT14=
EXTT15=
EXTT16=
EXTT17=
PLAYORDER=
